# Blender v2.79 (sub 0) OBJ File: 'room.blend'
# www.blender.org
mtllib room_uv.mtl
o Body1
v 39.370079 78.740150 68.190994
v 39.370079 -0.000011 68.190979
v 49.093685 78.740150 61.561546
v 49.093685 -0.000010 61.561535
v 57.720619 78.740150 53.556919
v 57.720619 -0.000009 53.556908
v 65.058174 78.740150 44.355923
v 65.058174 -0.000007 44.355911
v 70.942429 78.740150 34.164085
v 70.942429 -0.000006 34.164074
v 75.241951 78.740158 23.209082
v 75.241951 -0.000004 23.209068
v 77.860695 78.740158 11.735624
v 77.860695 -0.000002 11.735612
v 78.740158 78.740158 0.000013
v 78.740158 0.000000 0.000000
v 77.860695 78.740158 -11.735600
v 77.860695 0.000002 -11.735612
v 75.241951 78.740158 -23.209055
v 75.241951 0.000004 -23.209068
v 70.942429 78.740166 -34.164062
v 70.942429 0.000006 -34.164074
v 65.058174 78.740166 -44.355900
v 65.058174 0.000007 -44.355911
v 57.720619 78.740166 -53.556896
v 57.720619 0.000009 -53.556908
v 49.093685 78.740166 -61.561523
v 49.093685 0.000010 -61.561535
v 39.370079 78.740166 -68.190964
v 39.370079 0.000011 -68.190979
v 28.767010 78.740173 -73.297134
v 28.767010 0.000012 -73.297150
v 17.521334 78.740173 -76.765961
v 17.521334 0.000013 -76.765976
v 5.884259 78.740173 -78.519966
v 5.884259 0.000013 -78.519981
v -5.884259 78.740173 -78.519966
v -5.884259 0.000013 -78.519981
v -17.521334 78.740173 -76.765961
v -17.521334 0.000013 -76.765976
v -28.767010 78.740173 -73.297134
v -28.767010 0.000012 -73.297150
v -39.370079 78.740166 -68.190964
v -39.370079 0.000011 -68.190979
v -49.093685 78.740166 -61.561523
v -49.093685 0.000010 -61.561535
v -57.720619 78.740166 -53.556896
v -57.720619 0.000009 -53.556908
v -65.058174 78.740166 -44.355900
v -65.058174 0.000007 -44.355911
v -70.942429 78.740166 -34.164062
v -70.942429 0.000006 -34.164074
v -75.241951 78.740158 -23.209055
v -75.241951 0.000004 -23.209068
v -77.860695 78.740158 -11.735600
v -77.860695 0.000002 -11.735612
v -78.740158 78.740158 0.000013
v -78.740158 0.000000 0.000000
v -77.860695 78.740158 11.735624
v -77.860695 -0.000002 11.735612
v -75.241951 78.740158 23.209082
v -75.241951 -0.000004 23.209068
v -70.942429 78.740150 34.164085
v -70.942429 -0.000006 34.164074
v -65.058174 78.740150 44.355923
v -65.058174 -0.000007 44.355911
v -57.720619 78.740150 53.556919
v -57.720619 -0.000009 53.556908
v -49.093685 78.740150 61.561546
v -49.093685 -0.000010 61.561535
v -39.370079 78.740150 68.190994
v -39.370079 -0.000011 68.190979
vt 0.999956 0.000044
vt 0.999956 0.191192
vt 0.971387 0.000044
vt 0.971387 0.191192
vt 0.942818 0.000044
vt 0.942818 0.191192
vt 0.914249 0.000044
vt 0.914249 0.191192
vt 0.885680 0.000044
vt 0.885680 0.191192
vt 0.857111 0.000044
vt 0.857112 0.191192
vt 0.828543 0.000044
vt 0.828543 0.191192
vt 0.799974 0.000044
vt 0.799974 0.191192
vt 0.771405 0.000044
vt 0.771405 0.191192
vt 0.742836 0.000044
vt 0.742836 0.191192
vt 0.714267 0.000044
vt 0.714267 0.191192
vt 0.685698 0.000044
vt 0.685698 0.191192
vt 0.657129 0.000044
vt 0.657129 0.191192
vt 0.628560 0.000044
vt 0.628560 0.191192
vt 0.599991 0.000044
vt 0.599991 0.191192
vt 0.571422 0.000044
vt 0.571422 0.191192
vt 0.542853 0.000044
vt 0.542853 0.191192
vt 0.514284 0.000044
vt 0.514284 0.191192
vt 0.485715 0.000044
vt 0.485715 0.191192
vt 0.457146 0.000044
vt 0.457146 0.191192
vt 0.428577 0.000044
vt 0.428577 0.191192
vt 0.400008 0.000044
vt 0.400009 0.191192
vt 0.371440 0.000044
vt 0.371440 0.191192
vt 0.342871 0.000044
vt 0.342871 0.191192
vt 0.314302 0.000044
vt 0.314302 0.191192
vt 0.285733 0.000044
vt 0.285733 0.191192
vt 0.257164 0.000044
vt 0.257164 0.191192
vt 0.228595 0.000044
vt 0.228595 0.191192
vt 0.200026 0.000044
vt 0.200026 0.191192
vt 0.171457 0.000044
vt 0.171457 0.191192
vt 0.142888 0.000044
vt 0.142888 0.191192
vt 0.114319 0.000044
vt 0.114319 0.191192
vt 0.085750 0.000044
vt 0.085751 0.191192
vt 0.057182 0.000044
vt 0.057182 0.191192
vt 0.028613 0.000044
vt 0.028613 0.191192
vt 0.000044 0.000044
vt 0.000044 0.191192
vn 0.7071 -0.0000 0.7071
vn 0.7071 0.0001 0.7071
vn 0.8005 -0.0000 0.5993
vn 0.8005 0.0001 0.5993
vn 0.9352 -0.0000 0.3540
vn 0.9352 -0.0002 0.3540
vn 1.0000 0.0000 0.0000
vn 0.9352 0.0002 -0.3540
vn 0.9352 0.0000 -0.3540
vn 0.8005 0.0000 -0.5993
vn 0.7071 -0.0001 -0.7071
vn 0.7071 0.0000 -0.7071
vn 0.6802 -0.0000 -0.7330
vn 0.4920 0.0000 -0.8706
vn 0.1865 0.0000 -0.9825
vn -0.1865 0.0000 -0.9825
vn -0.4920 0.0000 -0.8706
vn -0.6802 0.0000 -0.7330
vn -0.7071 0.0001 -0.7071
vn -0.7071 0.0000 -0.7071
vn -0.8005 0.0000 -0.5993
vn -0.8005 0.0001 -0.5993
vn -0.9352 0.0000 -0.3540
vn -0.9352 -0.0001 -0.3540
vn -1.0000 -0.0000 0.0000
vn -0.9352 -0.0000 0.3540
vn -0.8005 -0.0000 0.5993
vn -0.7071 -0.0001 0.7071
vn -0.7071 -0.0000 0.7071
usemtl Steel_-_Satin
s 1
f 1/1/1 2/2/1 3/3/1
f 3/3/1 2/2/1 4/4/1
f 3/3/1 4/4/1 5/5/1
f 5/5/1 4/4/1 6/6/1
f 5/5/1 6/6/1 7/7/1
f 7/7/1 6/6/1 8/8/2
f 7/7/1 8/8/2 9/9/1
f 9/9/1 8/8/2 10/10/2
f 9/9/1 10/10/2 11/11/3
f 11/11/3 10/10/2 12/12/4
f 11/11/3 12/12/4 13/13/5
f 13/13/5 12/12/4 14/14/6
f 13/13/5 14/14/6 15/15/7
f 15/15/7 14/14/6 16/16/7
f 15/15/7 16/16/7 17/17/8
f 17/17/8 16/16/7 18/18/9
f 17/17/8 18/18/9 19/19/10
f 19/19/10 18/18/9 20/20/10
f 19/19/10 20/20/10 21/21/11
f 21/21/11 20/20/10 22/22/12
f 21/21/11 22/22/12 23/23/11
f 23/23/11 22/22/12 24/24/12
f 23/23/11 24/24/12 25/25/12
f 25/25/12 24/24/12 26/26/12
f 25/25/12 26/26/12 27/27/12
f 27/27/12 26/26/12 28/28/12
f 27/27/12 28/28/12 29/29/12
f 29/29/12 28/28/12 30/30/12
f 29/29/12 30/30/12 31/31/13
f 31/31/13 30/30/12 32/32/13
f 31/31/13 32/32/13 33/33/14
f 33/33/14 32/32/13 34/34/14
f 33/33/14 34/34/14 35/35/15
f 35/35/15 34/34/14 36/36/15
f 35/35/15 36/36/15 37/37/16
f 37/37/16 36/36/15 38/38/16
f 37/37/16 38/38/16 39/39/17
f 39/39/17 38/38/16 40/40/17
f 39/39/17 40/40/17 41/41/18
f 41/41/18 40/40/17 42/42/18
f 41/41/18 42/42/18 43/43/19
f 43/43/19 42/42/18 44/44/20
f 43/43/19 44/44/20 45/45/20
f 45/45/20 44/44/20 46/46/20
f 45/45/20 46/46/20 47/47/20
f 47/47/20 46/46/20 48/48/20
f 47/47/20 48/48/20 49/49/20
f 49/49/20 48/48/20 50/50/19
f 49/49/20 50/50/19 51/51/20
f 51/51/20 50/50/19 52/52/19
f 51/51/20 52/52/19 53/53/21
f 53/53/21 52/52/19 54/54/22
f 53/53/21 54/54/22 55/55/23
f 55/55/23 54/54/22 56/56/24
f 55/55/23 56/56/24 57/57/25
f 57/57/25 56/56/24 58/58/25
f 57/57/25 58/58/25 59/59/26
f 59/59/26 58/58/25 60/60/26
f 59/59/26 60/60/26 61/61/27
f 61/61/27 60/60/26 62/62/27
f 61/61/27 62/62/27 63/63/28
f 63/63/28 62/62/27 64/64/29
f 63/63/28 64/64/29 65/65/28
f 65/65/28 64/64/29 66/66/29
f 65/65/28 66/66/29 67/67/29
f 67/67/29 66/66/29 68/68/29
f 67/67/29 68/68/29 69/69/29
f 69/69/29 68/68/29 70/70/29
f 69/69/29 70/70/29 71/71/29
f 71/71/29 70/70/29 72/72/29
